<svg width="32" height="32" viewBox="0 0 32 32" fill="none" xmlns="http://www.w3.org/2000/svg">
  <defs>
    <!-- 헤더와 동일한 그라디언트 -->
    <linearGradient id="primary" x1="0%" y1="0%" x2="100%" y2="0%">
      <stop offset="0%" style="stop-color:#5bc0ff;stop-opacity:1" />
      <stop offset="100%" style="stop-color:#007bff;stop-opacity:1" />
    </linearGradient>
    <linearGradient id="accent" x1="0%" y1="0%" x2="100%" y2="100%">
      <stop offset="0%" style="stop-color:#ff6b9d;stop-opacity:1" />
      <stop offset="100%" style="stop-color:#c44569;stop-opacity:1" />
    </linearGradient>
    <!-- 글로우 효과 -->
    <filter id="glow" x="-50%" y="-50%" width="200%" height="200%">
      <feGaussianBlur stdDeviation="1" result="coloredBlur"/>
      <feMerge> 
        <feMergeNode in="coloredBlur"/>
        <feMergeNode in="SourceGraphic"/>
      </feMerge>
    </filter>
  </defs>
  
  <!-- 배경 -->
  <rect width="32" height="32" rx="6" fill="url(#primary)"/>
  
  <!-- 그리드 컨테이너 -->
  <rect x="6" y="6" width="20" height="20" rx="3" fill="rgba(255,255,255,0.1)" stroke="rgba(255,255,255,0.2)" stroke-width="1"/>
  
  <!-- 그리드 셀들 - 다양한 컴포넌트를 나타냄 -->
  <!-- 헤더 영역 (더 눈에 띄게) -->
  <rect x="7" y="7" width="18" height="4" rx="1.5" fill="white" opacity="1"/>
  
  <!-- 네비게이션 (더 진하고 크게) -->
  <rect x="8" y="13" width="4" height="2.5" rx="1" fill="white" opacity="0.95"/>
  <rect x="13.5" y="13" width="4" height="2.5" rx="1" fill="white" opacity="0.95"/>
  <rect x="19" y="13" width="5" height="2.5" rx="1" fill="white" opacity="0.95"/>
  
  <!-- 메인 컨텐츠 영역 (더 크고 진하게) -->
  <rect x="7" y="17" width="12" height="6" rx="2" fill="white" opacity="0.95"/>
  
  <!-- 사이드바 (더 진하게) -->
  <rect x="20" y="17" width="5" height="6" rx="1.5" fill="white" opacity="0.85"/>
  
  <!-- 액센트 포인트들 (더 크게) -->
  <circle cx="10" cy="19.5" r="1.2" fill="url(#primary)" opacity="0.9"/>
  <circle cx="14" cy="19.5" r="1.2" fill="url(#accent)" opacity="0.9"/>
  
  <!-- 모던한 액센트 (더 크게) -->
  <circle cx="26" cy="6" r="3" fill="url(#accent)" filter="url(#glow)"/>
  <rect x="24.5" y="4.5" width="3" height="3" rx="0.8" fill="white" opacity="1"/>
  
  <!-- 그리드 포인트들 (더 크게) -->
  <circle cx="11" cy="9" r="0.8" fill="url(#accent)" opacity="0.8"/>
  <circle cx="16" cy="9" r="0.8" fill="url(#accent)" opacity="0.8"/>
  <circle cx="21" cy="9" r="0.8" fill="url(#accent)" opacity="0.8"/>
</svg> 