<?xml version="1.0" encoding="UTF-8"?>
<svg width="32" height="32" viewBox="0 0 32 32" fill="none" xmlns="http://www.w3.org/2000/svg">
  <circle cx="16" cy="16" r="16" fill="#fff"/>
  <defs>
    <linearGradient id="gh-purple-gradient" x1="0" y1="0" x2="16" y2="16" gradientUnits="userSpaceOnUse">
      <stop offset="0%" stop-color="#764ba2"/>
      <stop offset="100%" stop-color="#4b206b"/>
    </linearGradient>
  </defs>
  <g transform="scale(2)">
    <path fill-rule="evenodd" clip-rule="evenodd" d="M8 0C3.58 0 0 3.58 0 8C0 11.54 2.29 14.43 5.47 15.5C5.87 15.57 6.02 15.32 6.02 15.1C6.02 14.9 6.01 14.3 6.01 13.59C4 13.99 3.48 12.97 3.34 12.54C3.23 12.23 2.84 11.54 2.5 11.39C2.21 11.27 1.77 10.91 2.5 10.9C3.19 10.89 3.63 11.54 3.76 11.77C4.57 13.13 5.91 12.75 6.41 12.54C6.48 12.01 6.7 11.66 6.95 11.46C5.07 11.26 3.09 10.59 3.09 7.54C3.09 6.68 3.39 5.99 3.91 5.45C3.82 5.25 3.54 4.43 3.99 3.32C3.99 3.32 4.65 3.1 6.01 4.13C6.65 3.95 7.35 3.86 8.05 3.86C8.75 3.86 9.45 3.95 10.09 4.13C11.45 3.1 12.11 3.32 12.11 3.32C12.56 4.43 12.28 5.25 12.19 5.45C12.71 5.99 13.01 6.68 13.01 7.54C13.01 10.6 11.03 11.25 9.15 11.45C9.47 11.7 9.75 12.21 9.75 13C9.75 14.09 9.74 14.85 9.74 15.1C9.74 15.32 9.89 15.58 10.29 15.5C13.47 14.43 15.76 11.54 15.76 8C15.76 3.58 12.42 0 8 0Z" fill="url(#gh-purple-gradient)"/>
  </g>
</svg> 